# xmcd
#
# Track frame offsets: 
#        150
#        15390
#        35565
#        50795
#        68919
#        83838
#        97900
#        112827
#        130371
#        146076
#        161429
#        177113
#
# Disc length: 2564 seconds
#
# Revision: 0
# Processed by: cddbd v1.5.2PL0 Copyright (c) Steve Scherf et al.
# Submitted via: ExactAudioCopyFreeDBPlugin 1.0
#
DISCID=990a020c
DTITLE=Luke Bryan - Spring Break... The Set List
DYEAR=2015
DGENRE=Country
TTITLE0=Sorority Girl
TTITLE1=Shake The Sand
TTITLE2=Love In A College Town
TTITLE3=Wild Weekend
TTITLE4=You And The Beach
TTITLE5=Spring Break-Up
TTITLE6=Like We Ain't Ever
TTITLE7=Night One
TTITLE8=In Love With The Girl
TTITLE9=Are You Leaving With Him
TTITLE10=The Sand I Brought To The Beach
TTITLE11=Take My Drunk A** Home
EXTD=
EXTT0=
EXTT1=
EXTT2=
EXTT3=
EXTT4=
EXTT5=
EXTT6=
EXTT7=
EXTT8=
EXTT9=
EXTT10=
EXTT11=
PLAYORDER=
